<?xml version="1.0" encoding="UTF-8"?>
<svg id="Layer_1_copy" data-name="Layer 1 copy" xmlns="http://www.w3.org/2000/svg" viewBox="0 0 492.94 316.43">
  <defs>
    <style>
      .cls-1 {
        fill: #231f20;
      }
    </style>
  </defs>
  <g>
    <path class="cls-1" d="m204.88,48.9l-9.91-.71.2-2.76c.22-2.6.88-3.15,4.29-3.54,2.19-.28,2.3-.31,2.67-.54.32-.21.44-.54.51-1.46.1-1.43-.17-1.68-1.98-1.8-1.12-.08-1.55-.02-1.8.24-.33.34-.39.58-.48,1.92l-2.79-.2c.14-2.02.25-2.43.68-3.09.73-1.04,2.01-1.39,4.57-1.2,3.79.27,4.86,1.28,4.63,4.44-.14,1.9-.65,2.86-1.8,3.28-.75.29-1.03.35-4.13.78-1.23.16-1.46.39-1.56,1.51l-.02.3,7.08.5-.17,2.32Z"/>
    <path class="cls-1" d="m216.47,37.39c1.08.65,1.52,1.48,1.55,2.92.02.54-.02,1.34-.15,3.13-.25,3.5-.37,4.07-.94,4.83-.49.63-1.28,1.09-2.14,1.24-.51.08-1.51.08-2.67,0-1.79-.13-2.68-.32-3.37-.76-1.07-.65-1.52-1.5-1.55-2.92-.02-.54.02-1.36.15-3.16.25-3.46.37-4.05.94-4.81.49-.62,1.28-1.08,2.14-1.22.49-.08,1.55-.08,2.63,0,1.87.13,2.7.33,3.41.76Zm-5.61,1.99c-.42.45-.43.56-.66,3.53q-.18,3.05.1,3.53c.24.4.71.55,2.08.65,1.25.09,1.76-.03,2.04-.43.3-.42.36-.66.46-1.82.02-.23.16-1.71.16-1.71.2-2.78.17-3.16-.23-3.55-.33-.31-.78-.42-2.17-.52-1.08-.08-1.49-.01-1.78.33Z"/>
    <path class="cls-1" d="m227.14,50.49l-2.89-.21.72-10.12-3.59,2.88-1.56-1.99,4.7-3.51,3.52.25-.9,12.69Z"/>
    <path class="cls-1" d="m241.65,41.41l-5.41,9.73-3.15-.22,5.57-9.85-6.6-.47.18-2.49,9.6.68-.19,2.63Z"/>
  </g>
  <g>
    <path class="cls-1" d="m111.4,120.6c.61-1.15,1.17-2.4,1.64-3.79,3.54-10.29-.4-17.61-3.28-22.95-2.49-4.62-3.45-6.63-2.24-10.15,1.21-3.52,3.21-4.52,8.02-6.62,5.56-2.44,13.18-5.78,16.72-16.07,3.54-10.29-.4-17.61-3.28-22.96-2.49-4.62-3.45-6.64-2.24-10.16,1.21-3.52,3.21-4.52,8.02-6.63,5.56-2.44,13.18-5.78,16.72-16.07L136.34,0c-1.21,3.52-3.21,4.52-8.02,6.63-5.56,2.44-13.18,5.78-16.72,16.07-3.54,10.29.4,17.61,3.28,22.96,2.49,4.62,3.45,6.64,2.24,10.16-1.21,3.52-3.21,4.52-8.02,6.62-5.56,2.44-13.18,5.78-16.72,16.07-3.54,10.29.4,17.61,3.28,22.95,2.49,4.62,3.45,6.63,2.24,10.15-.93,2.71-2.34,3.92-5.13,5.3-2.2-.18-4.42-.27-6.66-.27C38.64,116.64,0,157.05,0,206.73,0,238.07,15.38,265.72,38.67,281.87c-1.31,1.45-3.24,2.35-6.39,3.73-5.56,2.44-13.18,5.78-16.72,16.07l15.13,5.21c1.21-3.52,3.21-4.51,8.01-6.62,4.4-1.93,10.08-4.44,14.01-10.49,10.28,4.54,21.57,7.06,33.41,7.06,47.49,0,86.13-40.42,86.13-90.09,0-40.48-25.66-74.81-60.86-86.13ZM16,206.73c0-36.24,24.76-66.46,57.33-72.83-.05.14-.11.26-.15.4-3.54,10.29.4,17.61,3.28,22.95,2.49,4.62,3.45,6.63,2.24,10.15-1.21,3.52-3.21,4.51-8.02,6.62-5.56,2.44-13.18,5.78-16.72,16.07-3.54,10.29.4,17.61,3.28,22.95,2.49,4.62,3.45,6.63,2.24,10.15-1.21,3.52-3.21,4.51-8.01,6.62-5.56,2.44-13.18,5.78-16.72,16.06-1.23,3.57-1.54,6.78-1.33,9.67-10.84-13.05-17.44-30.13-17.44-48.81Zm70.13,74.09c-10.5,0-20.47-2.47-29.42-6.86-.52-5.19-2.75-9.35-4.57-12.73-2.49-4.62-3.45-6.63-2.24-10.15,1.21-3.52,3.21-4.51,8.01-6.62,5.56-2.44,13.18-5.78,16.72-16.06s-.4-17.61-3.28-22.95c-2.49-4.62-3.45-6.63-2.24-10.15,1.21-3.52,3.21-4.51,8.01-6.62,5.56-2.44,13.18-5.78,16.72-16.07,3.54-10.29-.4-17.61-3.28-22.95-2.49-4.62-3.45-6.63-2.24-10.15,1.13-3.28,2.94-4.37,7.06-6.2,34.31,4.8,60.89,35.88,60.89,73.43,0,40.85-31.46,74.09-70.13,74.09Z"/>
    <path class="cls-1" d="m231.13,190.2c-29.4,0-53.31,23.92-53.31,53.31s23.92,53.31,53.31,53.31,53.31-23.92,53.31-53.31-23.92-53.31-53.31-53.31Zm0,90.62c-20.57,0-37.31-16.74-37.31-37.31s16.74-37.31,37.31-37.31,37.31,16.74,37.31,37.31-16.74,37.31-37.31,37.31Z"/>
    <polygon class="cls-1" points="387.39 65.99 379.61 52.01 295.36 98.89 291 79.6 275.4 83.12 280.79 106.99 177.72 164.34 185.5 178.33 284.47 123.26 325 302.52 340.61 298.99 299.04 115.15 387.39 65.99"/>
    <path class="cls-1" d="m443.32,90.74c-10.44-2.82-21.15-3.06-31.43-.86,1.2-2.29,2.15-5.15,2.42-8.92l-13.96-1c-.22,3.05-1.17,4.17-3.08,6.38-2.17,2.52-5.03,5.85-6.09,11.76-14.88,8.98-25.55,23.09-30.1,39.93-4.67,17.3-2.32,35.38,6.61,50.91,5.57,9.68,13.28,17.65,22.49,23.41-.5.89-1.19,1.69-2.1,2.75-2.48,2.88-5.88,6.84-6.43,14.51-.55,7.68,2.26,12.07,4.31,15.28,1.57,2.46,2.36,3.69,2.14,6.75-.22,3.05-1.17,4.16-3.08,6.37-2.48,2.88-5.89,6.83-6.43,14.51-.55,7.68,2.26,12.07,4.31,15.28,1.57,2.46,2.36,3.7,2.14,6.75-.22,3.05-1.17,4.16-3.08,6.37-2.48,2.88-5.88,6.83-6.43,14.51l13.96,1c.22-3.05,1.17-4.16,3.08-6.37,2.48-2.88,5.88-6.84,6.43-14.51.55-7.68-2.26-12.07-4.31-15.28-1.57-2.46-2.36-3.7-2.14-6.75s1.17-4.16,3.08-6.37c2.48-2.88,5.88-6.83,6.43-14.51.55-7.68-2.26-12.07-4.31-15.28-1.57-2.46-2.36-3.7-2.14-6.75s1.17-4.16,3.08-6.38c1.29-1.5,2.83-3.3,4.09-5.75,1.83.67,3.68,1.27,5.58,1.78,5.82,1.57,11.72,2.35,17.58,2.35,11.58,0,23.02-3.03,33.33-8.96,15.53-8.93,26.66-23.38,31.33-40.67,9.63-35.71-11.58-72.6-47.29-82.24Zm-66.79,51.45c2.94-10.88,9.23-20.27,17.99-27.04.21.34.42.67.62.98,1.57,2.46,2.36,3.7,2.14,6.75-.22,3.05-1.17,4.16-3.08,6.38-2.48,2.89-5.88,6.84-6.43,14.51-.55,7.68,2.26,12.07,4.31,15.28,1.57,2.46,2.36,3.7,2.14,6.75-.22,3.05-1.17,4.16-3.08,6.38-2.39,2.78-5.63,6.56-6.35,13.7-1.16-1.57-2.24-3.21-3.23-4.92-6.8-11.83-8.59-25.59-5.03-38.77Zm98.63,26.61c-3.55,13.17-12.03,24.17-23.85,30.97-11.83,6.8-25.6,8.59-38.77,5.03-2.82-.76-5.53-1.76-8.13-2.95-.89-3.18-2.37-5.51-3.59-7.42-1.57-2.46-2.36-3.7-2.14-6.75.22-3.05,1.17-4.16,3.08-6.38,2.48-2.89,5.88-6.84,6.43-14.51.55-7.68-2.26-12.07-4.31-15.28-1.57-2.46-2.36-3.7-2.14-6.75.22-3.05,1.17-4.16,3.08-6.38,2.48-2.89,5.88-6.84,6.43-14.51.55-7.68-2.26-12.07-4.31-15.28-.1-.16-.19-.3-.28-.44,6.1-2.49,12.57-3.76,19.1-3.76,4.46,0,8.96.59,13.39,1.79,27.19,7.34,43.34,35.43,36.01,62.62Z"/>
    <path class="cls-1" d="m246.04,34.9l-54.04-3.85-1.49,20.85,54.04,3.85,1.49-20.85Zm-3.34,18.71l-50.05-3.57,1.2-16.86,50.05,3.57-1.2,16.86Z"/>
  </g>
</svg>